<svg width="48" height="48" viewBox="0 0 48 48" fill="none" xmlns="http://www.w3.org/2000/svg">
<path d="M33.8 46.1C27.3 47.3 20.7 47.3 14.2 46.1C8 44.9 3.1 40 1.9 33.8C0.7 27.3 0.7 20.7 1.9 14.2C3.1 8 8 3.1 14.2 1.9C20.7 0.7 27.3 0.7 33.8 1.9C40 3.1 44.9 8 46.1 14.2C47.3 20.7 47.3 27.3 46.1 33.8C44.9 40 40 44.9 33.8 46.1Z" fill="#FAAB32"/>
<path opacity="0.4" d="M24 1.6C27.3 1.6 30.5 1.9 33.7 2.5C39.7 3.6 44.4 8.3 45.5 14.3C46.7 20.7 46.7 27.3 45.5 33.7C44.4 39.7 39.7 44.4 33.7 45.5C30.5 46.1 27.3 46.4 24 46.4C20.7 46.4 17.5 46.1 14.3 45.5C8.3 44.4 3.6 39.7 2.5 33.7C1.3 27.3 1.3 20.7 2.5 14.3C3.6 8.3 8.3 3.6 14.3 2.5C17.5 1.9 20.8 1.6 24 1.6ZM24 1C20.7 1 17.4 1.3 14.2 1.9C8 3.1 3.1 8 1.9 14.2C0.7 20.7 0.7 27.3 1.9 33.8C3.1 40 8 44.9 14.2 46.1C17.4 46.7 20.7 47 24 47C27.3 47 30.6 46.7 33.8 46.1C40 44.9 44.9 40 46.1 33.8C47.3 27.3 47.3 20.7 46.1 14.2C44.9 8 40 3.1 33.8 1.9C30.6 1.3 27.3 1 24 1Z" fill="#FE8D33"/>
<path d="M11 13.3L13.8 17H34L37 13.3L34.6 9C27.5 9.4 20.5 9.4 13.4 9L11 13.3Z" fill="#F5701D"/>
<path opacity="0.8" d="M11 13.3L15.5 11V29L11 13.3ZM32.5 11V29L37 13.3L32.5 11Z" fill="#B62339"/>
<path d="M33.9 38.6004C27.3 39.2004 20.7 39.2004 14.2 38.6004C11.6 38.3004 10 36.7004 10.1 34.4004C10.1 27.4004 10.4 20.3004 11.1 13.4004C19.8 14.1004 28.5 14.1004 37.2 13.4004C37.9 21.2004 38.2 27.2004 38.2 34.4004C38.1 36.6004 36.4 38.2004 33.9 38.6004Z" fill="#FFF9EF"/>
<path d="M24 27.5C19.9 27.5 16.6 22.9 16.6 18.8C16.6 18.1 17.1 17.6 17.8 17.5C18.5 17.5 19 18 19.1 18.7V18.8C19 21.5 21.2 23.8 23.9 23.9C26.6 24 28.8 21.9 28.9 19.2C28.9 19.1 28.9 19 28.9 18.8C28.9 18.1 29.4 17.6 30.1 17.5C30.8 17.5 31.3 18 31.4 18.7V18.8C31.4 22.9 28.1 27.5 24 27.5Z" fill="#FFF1E7"/>
<path d="M33.9 38.5996C36.4 38.2996 38.1 36.6996 38 34.3996C38 31.6996 38 29.0996 37.9 26.5996C29.2 34.2996 14.4 33.5996 10 33.1996C10 33.5996 10 33.9996 10 34.3996C9.9 36.6996 11.5 38.2996 14.1 38.5996C20.7 39.0996 27.3 39.0996 33.9 38.5996Z" fill="#FFF1E7"/>
<path d="M24 25.4C19.9 25.3 16.6 22 16.6 17.8C16.6 17.1 17.1 16.6 17.8 16.5C18.5 16.5 19 17 19.1 17.7V17.8C19 20.5 21.2 22.8 23.9 22.9C26.6 23 28.8 20.9 29 18.2C29 18.1 29 17.9 29 17.8C29 17.1 29.5 16.6 30.2 16.5C30.9 16.5 31.4 17 31.5 17.7V17.8C31.4 21.9 28.1 25.3 24 25.4Z" fill="#F5701D"/>
<path d="M13.4 9L15.5 11C14.1 12 12.6 12.7 11 13.3L13.4 9ZM34.6 9L32.5 11C33.9 11.9 35.4 12.7 37 13.3L34.6 9Z" fill="#FDD584"/>
</svg>
